<svg width="1600" height="900" viewBox="0 0 1600 900" fill="none" xmlns="http://www.w3.org/2000/svg" role="img" aria-labelledby="title desc">
  <title id="title">DisburseGuard Treasury Checkpoint cover</title>
  <desc id="desc">A bright fintech cover showing an AI payout request stopped at a proof checkpoint before money can move.</desc>
  <rect width="1600" height="900" fill="#F7F2E8"/>
  <path d="M0 716C230 626 418 709 640 650C872 588 1044 432 1262 485C1424 524 1510 651 1600 612V900H0V716Z" fill="#E9F0FF"/>
  <path d="M128 105H1472" stroke="#D8D2C4" stroke-width="2"/>
  <text x="128" y="74" fill="#111827" font-family="Arial, Helvetica, sans-serif" font-size="24" font-weight="900" letter-spacing="5">DISBURSEGUARD</text>
  <text x="1280" y="74" fill="#334155" font-family="Arial, Helvetica, sans-serif" font-size="19" font-weight="700">AI Agent Olympics</text>

  <text x="128" y="184" fill="#245BFF" font-family="Arial, Helvetica, sans-serif" font-size="22" font-weight="900" letter-spacing="4">PROOF-PAID TREASURY FIREWALL</text>
  <text x="128" y="286" fill="#111827" font-family="Arial, Helvetica, sans-serif" font-size="82" font-weight="900">No proof.</text>
  <text x="128" y="376" fill="#111827" font-family="Arial, Helvetica, sans-serif" font-size="82" font-weight="900">No payout.</text>
  <text x="132" y="428" fill="#334155" font-family="Arial, Helvetica, sans-serif" font-size="28">AI payout agents must buy evidence before</text>
  <text x="132" y="466" fill="#334155" font-family="Arial, Helvetica, sans-serif" font-size="28">company money can move.</text>

  <rect x="128" y="552" width="228" height="110" rx="28" fill="#FFFBF2" stroke="#D8D2C4" stroke-width="2"/>
  <text x="158" y="592" fill="#64748B" font-family="Arial, Helvetica, sans-serif" font-size="16" font-weight="900" letter-spacing="2">REQUEST</text>
  <text x="158" y="641" fill="#111827" font-family="Arial, Helvetica, sans-serif" font-size="45" font-weight="900">$75K</text>
  <rect x="384" y="552" width="228" height="110" rx="28" fill="#FFF2C8" stroke="#FFB020" stroke-width="3"/>
  <text x="414" y="592" fill="#9A6500" font-family="Arial, Helvetica, sans-serif" font-size="16" font-weight="900" letter-spacing="2">PROOF SPEND</text>
  <text x="414" y="641" fill="#111827" font-family="Arial, Helvetica, sans-serif" font-size="45" font-weight="900">$0.39</text>
  <rect x="128" y="692" width="484" height="88" rx="28" fill="#E5FFF3" stroke="#36C78A" stroke-width="3"/>
  <text x="158" y="728" fill="#087A4C" font-family="Arial, Helvetica, sans-serif" font-size="15" font-weight="900" letter-spacing="2">CAPITAL CONTROLLED BEFORE PAYOUT</text>
  <text x="158" y="766" fill="#111827" font-family="Arial, Helvetica, sans-serif" font-size="40" font-weight="900">$50K</text>
  <text x="282" y="762" fill="#334155" font-family="Arial, Helvetica, sans-serif" font-size="22" font-weight="800">held before payout</text>

  <rect x="760" y="150" width="692" height="422" rx="42" fill="#FFFBF2" stroke="#111827" stroke-width="3"/>
  <rect x="804" y="194" width="604" height="86" rx="26" fill="#EEF4FF" stroke="#B7C8FF" stroke-width="2"/>
  <text x="836" y="230" fill="#173A9E" font-family="Arial, Helvetica, sans-serif" font-size="16" font-weight="900" letter-spacing="2">AI AGENT PAYOUT REQUEST</text>
  <text x="836" y="264" fill="#111827" font-family="Arial, Helvetica, sans-serif" font-size="28" font-weight="900">Hardware reserve invoice - $75,000</text>

  <path d="M866 372H1028" stroke="#D8D2C4" stroke-width="10" stroke-linecap="round"/>
  <path d="M1020 348L1050 372L1020 396" stroke="#D8D2C4" stroke-width="10" stroke-linecap="round" stroke-linejoin="round"/>
  <path d="M1182 372H1320" stroke="#D8D2C4" stroke-width="10" stroke-linecap="round"/>
  <path d="M1312 348L1342 372L1312 396" stroke="#D8D2C4" stroke-width="10" stroke-linecap="round" stroke-linejoin="round"/>

  <rect x="830" y="326" width="154" height="96" rx="24" fill="#FFFFFF" stroke="#D8D2C4" stroke-width="2"/>
  <text x="858" y="362" fill="#64748B" font-family="Arial, Helvetica, sans-serif" font-size="14" font-weight="900" letter-spacing="2">INTENT</text>
  <text x="858" y="397" fill="#111827" font-family="Arial, Helvetica, sans-serif" font-size="31" font-weight="900">$75K</text>

  <rect x="1038" y="300" width="168" height="146" rx="32" fill="#111827" stroke="#FF5C7A" stroke-width="4"/>
  <text x="1074" y="340" fill="#FFFFFF" font-family="Arial, Helvetica, sans-serif" font-size="18" font-weight="900" letter-spacing="2">HTTP 402</text>
  <text x="1074" y="382" fill="#FFFFFF" font-family="Arial, Helvetica, sans-serif" font-size="30" font-weight="900">Proof</text>
  <text x="1074" y="418" fill="#FFFFFF" font-family="Arial, Helvetica, sans-serif" font-size="30" font-weight="900">Gate</text>

  <rect x="1340" y="326" width="52" height="96" rx="26" fill="#36C78A"/>
  <rect x="1270" y="326" width="124" height="96" rx="24" fill="#E5FFF3" stroke="#36C78A" stroke-width="3"/>
  <text x="1296" y="362" fill="#087A4C" font-family="Arial, Helvetica, sans-serif" font-size="14" font-weight="900" letter-spacing="2">CLEARED</text>
  <text x="1296" y="397" fill="#111827" font-family="Arial, Helvetica, sans-serif" font-size="31" font-weight="900">$25K</text>

  <g transform="translate(1076 488) rotate(-8)">
    <rect x="0" y="0" width="210" height="54" rx="27" fill="#FFFFFF" stroke="#245BFF" stroke-width="3"/>
    <text x="27" y="36" fill="#245BFF" font-family="Arial, Helvetica, sans-serif" font-size="20" font-weight="900" letter-spacing="2">PAID PROOF</text>
  </g>

  <rect x="820" y="626" width="596" height="120" rx="34" fill="#111827"/>
  <text x="858" y="671" fill="#FFFFFF" font-family="Arial, Helvetica, sans-serif" font-size="25" font-weight="900">Signed ClearancePacket + Vultr ledger</text>
  <circle cx="872" cy="716" r="11" fill="#245BFF"/>
  <line x1="883" y1="716" x2="978" y2="716" stroke="#FFFFFF" stroke-width="3" opacity=".6"/>
  <circle cx="1000" cy="716" r="11" fill="#FFB020"/>
  <line x1="1011" y1="716" x2="1106" y2="716" stroke="#FFFFFF" stroke-width="3" opacity=".6"/>
  <circle cx="1128" cy="716" r="11" fill="#36C78A"/>
  <line x1="1139" y1="716" x2="1234" y2="716" stroke="#FFFFFF" stroke-width="3" opacity=".6"/>
  <circle cx="1256" cy="716" r="11" fill="#FF5C7A"/>
  <text x="1290" y="723" fill="#BFD0FF" font-family="Arial, Helvetica, sans-serif" font-size="18" font-weight="800">verify API</text>
  <text x="128" y="836" fill="#334155" font-family="Arial, Helvetica, sans-serif" font-size="21" font-weight="800">Gemini extraction + x402-style proof payments + deterministic policy + signed ledger verification</text>
</svg>